<svg width="160" height="160" viewBox="0 0 160 160" xmlns="http://www.w3.org/2000/svg">
  <defs>
    <linearGradient id="goldSheen" x1="0%" y1="0%" x2="100%" y2="100%">
      <stop offset="0%" style="stop-color:#E8C97A"/>
      <stop offset="40%" style="stop-color:#C9A84C"/>
      <stop offset="100%" style="stop-color:#A07830"/>
    </linearGradient>
    <linearGradient id="goldSheenLight" x1="0%" y1="0%" x2="100%" y2="100%">
      <stop offset="0%" style="stop-color:#F0D890"/>
      <stop offset="50%" style="stop-color:#C9A84C"/>
      <stop offset="100%" style="stop-color:#B08828"/>
    </linearGradient>
  </defs>

  <!-- Dark navy background -->
  <rect x="0" y="0" width="160" height="160" rx="32" fill="#0F1F3D"/>

  <!-- Outer viewfinder ring -->
  <circle cx="80" cy="80" r="58" fill="none" stroke="url(#goldSheen)" stroke-width="2.5"/>

  <!-- Corner brackets -->
  <path d="M44 56 L44 44 L56 44" fill="none" stroke="url(#goldSheen)" stroke-width="2.5" stroke-linecap="round" stroke-linejoin="round"/>
  <path d="M116 56 L116 44 L104 44" fill="none" stroke="url(#goldSheen)" stroke-width="2.5" stroke-linecap="round" stroke-linejoin="round"/>
  <path d="M44 104 L44 116 L56 116" fill="none" stroke="url(#goldSheen)" stroke-width="2.5" stroke-linecap="round" stroke-linejoin="round"/>
  <path d="M116 104 L116 116 L104 116" fill="none" stroke="url(#goldSheen)" stroke-width="2.5" stroke-linecap="round" stroke-linejoin="round"/>

  <!-- Spine vertebra stack -->
  <rect x="68" y="42" width="24" height="8" rx="3" fill="url(#goldSheen)"/>
  <rect x="72" y="51" width="16" height="4" rx="1.5" fill="#C9A84C" opacity="0.5"/>
  <rect x="66" y="57" width="28" height="8" rx="3" fill="url(#goldSheen)"/>
  <rect x="71" y="66" width="18" height="4" rx="1.5" fill="#C9A84C" opacity="0.5"/>
  <rect x="64" y="72" width="32" height="9" rx="3" fill="url(#goldSheenLight)"/>
  <rect x="70" y="82" width="20" height="4" rx="1.5" fill="#C9A84C" opacity="0.5"/>
  <rect x="66" y="88" width="28" height="8" rx="3" fill="url(#goldSheen)"/>
  <rect x="71" y="97" width="18" height="4" rx="1.5" fill="#C9A84C" opacity="0.5"/>
  <rect x="68" y="103" width="24" height="8" rx="3" fill="url(#goldSheen)"/>

  <!-- Spine center line -->
  <line x1="80" y1="42" x2="80" y2="111" stroke="#0F1F3D" stroke-width="3"/>

  <!-- Center dot -->
  <circle cx="80" cy="80" r="4" fill="url(#goldSheenLight)"/>
  <circle cx="80" cy="80" r="2" fill="#0F1F3D"/>
</svg>
